<svg xmlns="http://www.w3.org/2000/svg" viewBox="0 0 800 400" fill="none">
  <rect width="800" height="400" fill="#16213e"/>
  <rect x="100" y="50" width="280" height="300" rx="12" fill="#1a1a2e" stroke="#4fc3f7" stroke-width="2"/>
  <rect x="120" y="70" width="240" height="180" rx="4" fill="#0d1b2a"/>
  <rect x="130" y="80" width="100" height="70" rx="4" fill="#ff6b6b" opacity="0.4"/>
  <rect x="240" y="80" width="110" height="70" rx="4" fill="#4ecdc4" opacity="0.4"/>
  <rect x="130" y="160" width="220" height="80" rx="4" fill="#ffe66d" opacity="0.3"/>
  <rect x="120" y="260" width="140" height="10" rx="4" fill="#4fc3f7" opacity="0.4"/>
  <rect x="120" y="280" width="100" height="10" rx="4" fill="#4fc3f7" opacity="0.3"/>
  <rect x="120" y="300" width="80" height="10" rx="4" fill="#4fc3f7" opacity="0.2"/>
  <text x="240" y="370" text-anchor="middle" font-family="Arial" font-size="14" fill="#4fc3f7">Layer 1</text>
  <rect x="420" y="50" width="280" height="300" rx="12" fill="#1a1a2e" stroke="#81d4fa" stroke-width="2"/>
  <rect x="440" y="70" width="240" height="180" rx="4" fill="#0d1b2a"/>
  <rect x="450" y="80" width="220" height="160" rx="4" fill="#4fc3f7" opacity="0.2"/>
  <rect x="450" y="80" width="100" height="70" rx="4" fill="#ff6b6b" opacity="0.6"/>
  <rect x="560" y="80" width="110" height="70" rx="4" fill="#4ecdc4" opacity="0.6"/>
  <rect x="440" y="260" width="140" height="10" rx="4" fill="#81d4fa" opacity="0.4"/>
  <rect x="440" y="280" width="100" height="10" rx="4" fill="#81d4fa" opacity="0.3"/>
  <rect x="440" y="300" width="80" height="10" rx="4" fill="#81d4fa" opacity="0.2"/>
  <text x="560" y="370" text-anchor="middle" font-family="Arial" font-size="14" fill="#81d4fa">Merged</text>
</svg>
